<svg id="Group_2_copy" data-name="Group 2 copy" xmlns="http://www.w3.org/2000/svg" xmlns:xlink="http://www.w3.org/1999/xlink" width="237.974" height="43.437" viewBox="0 0 237.974 43.437">
  <defs>
    <style>
      .cls-1, .cls-2 {
        fill-rule: evenodd;
      }

      .cls-1 {
        fill: url(#linear-gradient);
      }

      .cls-2 {
        fill: url(#linear-gradient-2);
      }
    </style>
    <linearGradient id="linear-gradient" x1="875.174" y1="217.875" x2="918.612" y2="174.438" gradientUnits="userSpaceOnUse">
      <stop offset="0" stop-color="#e8c9e2"/>
      <stop offset="1" stop-color="#def3fa"/>
    </linearGradient>
    <linearGradient id="linear-gradient-2" x1="875.063" y1="217.875" x2="917.938" y2="175" gradientUnits="userSpaceOnUse">
      <stop offset="0" stop-color="#de9ed2"/>
      <stop offset="1" stop-color="#b6deeb"/>
    </linearGradient>
  </defs>
  <path id="_5s.Gift_copy_2" data-name="5s.Gift copy 2" class="cls-1" d="M1003.98,185.039v32.109H991.268V185.039H979.52v-9.9h36.36v9.9h-11.9ZM959.938,192.6h12.48v9.9h-12.48v14.648H947.281V175.137h26.338v9.9H959.938V192.6Zm-36.575-17.461H936.02v42.011H923.363V175.137Zm-25.91,42.744q-11.044,0-17.051-5.523t-6-15.483a23.061,23.061,0,0,1,3.032-11.865,19.678,19.678,0,0,1,8.54-7.881,29.219,29.219,0,0,1,12.978-2.695,48.31,48.31,0,0,1,11.69,1.552v11.045a24.875,24.875,0,0,0-5.567-1.831,30.975,30.975,0,0,0-5.83-.513,11.138,11.138,0,0,0-8.305,3.135q-3.091,3.135-3.091,8.614,0,5.244,2.593,8.2a9.129,9.129,0,0,0,7.251,2.959,15.633,15.633,0,0,0,3.193-.235v-6.006h-8.057v-9.58h20.713V214.4a27.072,27.072,0,0,1-7.09,2.416A40.7,40.7,0,0,1,897.453,217.881Zm-37.541,0a7.128,7.128,0,0,1-4.936-1.714,5.449,5.449,0,0,1-1.919-4.233,5.206,5.206,0,0,1,1.889-4.175,8.8,8.8,0,0,1,10.108,0,5.172,5.172,0,0,1,1.919,4.175,5.448,5.448,0,0,1-1.875,4.306A7.611,7.611,0,0,1,859.912,217.881Zm-25.441-26.66q6.533,2.636,9.243,5.771a11.01,11.01,0,0,1,2.71,7.442,12.132,12.132,0,0,1-2.241,7.294,13.273,13.273,0,0,1-6.285,4.629,27.625,27.625,0,0,1-9.726,1.524,31.754,31.754,0,0,1-12.07-2.227V204.141a23.826,23.826,0,0,0,5.83,3.12,17.142,17.142,0,0,0,5.947,1.186,5.873,5.873,0,0,0,3.223-.747,2.445,2.445,0,0,0,1.142-2.182,2.958,2.958,0,0,0-.571-1.8,5.612,5.612,0,0,0-1.729-1.45,32.142,32.142,0,0,0-4.292-1.846q-10.137-3.9-10.136-12.6a11.769,11.769,0,0,1,4.629-9.741q4.628-3.648,12.421-3.647,2.2,0,4.043.175t3.355,0.44q1.509,0.264,4.233,1v10.693a21.638,21.638,0,0,0-10.429-2.9,6.439,6.439,0,0,0-3.4.791,2.434,2.434,0,0,0-1.289,2.168,2.717,2.717,0,0,0,1.04,2.182A19.431,19.431,0,0,0,834.471,191.221Zm-31.858,2.68a11.9,11.9,0,0,1,3.487,9.038,14.778,14.778,0,0,1-2.036,7.72,13.778,13.778,0,0,1-5.874,5.318,20.158,20.158,0,0,1-9.053,1.9,38.745,38.745,0,0,1-6.05-.5,26.865,26.865,0,0,1-5.171-1.26V206.4a19.451,19.451,0,0,0,9.287,2.344,8.419,8.419,0,0,0,4.878-1.172,3.819,3.819,0,0,0,1.655-3.31q0-4.629-7.675-4.629a32.689,32.689,0,0,0-7.12.732l1.582-25.224h23.731v9.726H790.191l-0.41,5.889a31.2,31.2,0,0,1,3.194-.176Q799.127,190.576,802.613,193.9Z" transform="translate(-777.906 -174.438)"/>
  <path class="cls-2" d="M804,208h-1v-1h-1v-1h1v-1h1v1h1v1h-1v1Zm-1-12v-1h-1v-1h0.706A10.646,10.646,0,0,1,804,195.529V196h-1Zm1-13v1h-1v-1h-1v-1h1v-1h1v1h0.254v1H804Zm-6-7.863V176h1v1h-1v1h-1v-1h-1v-1h1v-0.863h1Zm-6,0V176h1v1h-1v1h-1v-1h-1v-1h1v-0.863h1Zm-6,0V176h1v1h-1v1h-1v-1h-1v-1h1v-0.863h1ZM781,177h-0.593l0.062-1H781v1Zm-1,30.361V208h-1v-1h-1v-0.562A20.524,20.524,0,0,0,780,207.361ZM791,211h1v1h1v1h-1v1h-1v-1h-1v-1h1v-1Zm1,6v0.719c-0.328.037-.662,0.066-1,0.09V217h1Zm5-24h1v1h1v1h-1v1h-1v-1h-1v-1h1v-1Zm1,21h-1v-1h-1v-1h1v-1h1v1h1v1h-1v1Zm-1-6v-1h-1v-1h1v-1h1v1h1v1h-1v1h-1Zm1-9v1h1v1h-1v1h-1v-1h-1v-1h1v-1h1Zm-5-4h-1v1h-1v-1h-1v-1h1v-1h1v1h1v1Zm-2,5v-1h1v1h1v1h-0.87a6.4,6.4,0,0,0-2.13-.945V200h1Zm1,7.619V208h-0.679A4.915,4.915,0,0,0,792,207.619Zm1-.986V207h-0.282A3.652,3.652,0,0,0,793,206.633ZM787,195h-1v1h-1v-1h-1v-1h1v-1h1v1h1v1Zm0-6h-1v1h-1v-1h-1v-1h1v-1h1v1h1v1Zm-1,10v0.63c-0.339,0-.667.016-1,0.025V199h1Zm-7.036,1H779v-0.572l0.027-.428H780v1h0.929c-0.677.1-1.343,0.217-1.988,0.361ZM781,195h-1v1h-0.785l0.188-3H780v1h1v1Zm0-6h-1v1h-0.409l0.188-3H780v1h1v1Zm0-6h-0.97l0.063-1H781v1Zm-1,.484V184h-0.032ZM780,211v1h1v1h-1v1h-1v-1h-1v-1h1v-1h1Zm6-30v1h1v1h-1v1h-1v-1h-1v-1h1v-1h1Zm6,0v1h1v1h-1v1h-1v-1h-1v-1h1v-1h1Zm6,0v1h1v1h-1v1h-1v-1h-1v-1h1v-1h1Zm5,21v-1h-1v-1h1v-1h1v1h1v1h-1v1h-1Zm-1,10h1v-1h0.843a13.188,13.188,0,0,1-1.554,2H802v-1Zm-17-1h1v1h1v1h-1v1h-1v-1h-1v-1h1v-1Zm1,6v0.739c-0.331-.029-0.665-0.065-1-0.1V217h1Zm18.254-40H804v1h-1v-1h-1v-1h1v-0.863h1V176h0.254v1Zm39.943,0H844v-1h0.026l0.171,0.045V177Zm-28.641,10H816v1h1v1h-1v1h-0.31a13.5,13.5,0,0,1-.174-2.178C815.516,187.541,815.541,187.273,815.556,187ZM822,196h-1v-1h-1v-1h1v-1h1v1h1v1h-1v1Zm1-19h-1v1h-1v-0.525a15.273,15.273,0,0,1,2-1.143V177Zm-3,5h1v-1h1v1h1v1h-1v1h-1v-1h-1v-1Zm1,8v-1h-1v-1h1v-1h1v1h1v1h-1v1h-1Zm-4-7h-0.593a10.851,10.851,0,0,1,.454-1H817v1Zm4,34h1v0.347c-0.337-.061-0.668-0.132-1-0.2V217Zm7,0v0.877c-0.336,0-.668-0.011-1-0.021V217h1Zm6,0v0.4c-0.328.058-.661,0.112-1,0.16V217h1Zm0-3h-1v-1h-1v-1h1v-1h1v1h1v1h-1v1Zm1-13h-1v1h-1v-1h-1v-1h1v-1h1v1h1v1Zm0-6h-1v1h-1v-1h-1v-1h1v-1h1v1h1v1Zm-2,13v-1h-1v-0.333a2.5,2.5,0,0,0,.193-0.667H833v-1h1v1h1v1h-1v1h-1Zm-6,6v-1h-1v-1h1v-1h1v1h1v1h-1v1h-1Zm-7-2h1v-1h1v1h1v1h-1v1h-1v-1h-1v-1Zm1-4v-1h-1v-0.561c0.628,0.3,1.268.575,1.932,0.822L822,207.285V208h-1Zm-4,5h-0.9v-1H817v1Zm0-6h-0.9v-1H817v1Zm12-12h-1v1h-1v-1h-1v-1h1v-1h1v1h1v1Zm0-6h-1v1h-1v-1h-1v-1h1v-1h1v1h1v1Zm0-6h-1v1h-1v-1h-1v-1h1v-1h1v1h1v1Zm-1-8v1h1v1h-1v1h-1v-1h-1v-1h1v-1h1Zm-2,25.553V200h1v-1h1v1h1v1h-1v0.347Q827.142,200.986,826,200.553ZM844.2,183H844v-1h0.2v1ZM838,206h1v-1h1v1h1v1h-1v1h-1v-1h-1v-1Zm1,8v-1h-1v-1h1v-1h1v1h1v1h-1v1h-1Zm1-15v1h1v1h-1v1h-1v-1h-1v-1h1v-1h1Zm0-18v1h1v1h-1v1h-1v-1h-1v-1h1v-1h1Zm5,20h-1v-1h1v-1h0.1a10.594,10.594,0,0,1,.9,2.232V202h-1v-1Zm-5-7.045V194h0.073c0.344,0.215.615,0.44,0.927,0.659V195h-1v1h-1v-1h-1v-1h1v-0.6C839.328,193.587,839.7,193.767,840,193.955ZM834,175v1h1v1h-1v1h-1v-1h-1v-1h1v-1h1Zm-0.232,8.838c-0.269,0-.519.018-0.768,0.038V183h-1v-1h1v-1h1v1h1v1h-1v0.846C833.923,183.845,833.845,183.838,833.768,183.838ZM840,176h1v1h-1v1h-1v-1h-1v-1h1v-1h0.642c0.1,0.017.22,0.031,0.322,0.049L840,175.056V176Zm5.957,32H845v-1h-1v-1h1v-1h1v1h0.332c-0.036.339-.085,0.673-0.146,1H846v0.835C845.986,207.89,845.972,207.945,845.957,208ZM859,207h-1v1h-1v-1h-0.9a7.846,7.846,0,0,1,2.9-.787V207Zm-2,4h1v1h1v1h-1v1h-1v-1h-1v-1h1v-1Zm1,6v0.679a7.063,7.063,0,0,1-1-.3V217h1Zm5,0h0.984a6.587,6.587,0,0,1-.984.42V217Zm1-3h-1v-1h-1v-1h1v-1h1v1h1v1h-1v1Zm-1-6v-1h-1v-0.648a7.225,7.225,0,0,1,2,.7V208h-1Zm49,6h-1v-1h-1v-1h1v-1h1v1h1v1h-1v1Zm-2-20h1v-1h1v1h1v1h-1v1h-1v-1h-1v-1Zm0,6h1v-1h1v1h1v1h-1v1h-1v-1h-1v-1Zm1,8v-1h-1v-1h1v-1h1v1h1v1h-1v1h-1Zm-0.363-31H910v-1h0.637v1ZM906,176h1v1h-1v1h-1v-1h-1v-1h1v-1h0.81l0.19,0.028V176Zm-19,20v-1h-1v-1h1v-1h1v1h0.019a16.287,16.287,0,0,0-.159,2H887Zm1-6h-1v-1h-1v-1h1v-1h1v1h1v1h-1v1Zm1-14v1h-1v1h-1v-1h-0.744a23.853,23.853,0,0,1,2.454-1H889Zm-2,5h1v1h1v1h-1v1h-1v-1h-1v-1h1v-1Zm7,36v0.73c-0.337-.03-0.671-0.064-1-0.1V217h1Zm0-3h-1v-1h-1v-1h1v-1h1v1h1v1h-1v1Zm6,3v0.785c-0.335.024-.669,0.043-1,0.057V217h1Zm1-4h-1v1h-1v-1h-1v-1h1v-1h1v1h1v1Zm0-6h-0.119v-1H901v1Zm0-6h-1v0.357h-1V201h-1v-1h1v-1h1v1h1v1Zm-2,6.568c0.371-.016.7-0.041,1-0.072V208h-1v-0.432ZM893,207h-1v-0.98a8.4,8.4,0,0,0,2,.995V208h-1v-1Zm-7-1h1v-1h1v1h1v1h-1v1h-1v-1h-1v-1Zm1,8v-1h-1v-1h1v-1h1v1h1v1h-1v1h-1Zm1-12h-1v-1h-1v-1h1v-1h1v1h0.2c0.075,0.344.164,0.677,0.263,1H888v1Zm7-19h-1v1h-1v-1h-1v-1h1v-1h1v1h1v1Zm-1-8v1h1v1h-1v1h-1v-1h-1v-1h1v-1h1Zm6,6v1h1v1h-1v1h-1v-1h-1v-1h1v-1h1Zm6,0v1h1v1h-1v1h-1v-1h-1v-1h1v-1h1Zm4,1h0.637v1H910v-1Zm-16,11v1h1v1h-1v1h-1v-1h-0.176v-1H893v-1h1Zm-1,8.357V201h-0.176v-1H893v-1h1v1h1v1h-1v0.357h-1ZM900,193v1h1v1h-1v1h-1v-1h-1v-1h1v-1h1Zm5.565,24-0.565.114V217h0.565ZM907,213h-1v1h-1v-1h-1v-1h1v-1h1v1h1v1Zm0-6h-1v1h-1v-1h-1v-1h1v-1h1v1h1v1Zm0-6h-1v1h-1v-1h-1v-1h1v-1h1v1h1v1Zm-1-8v1h1v1h-1v1h-1v-1h-1v-1h1v-1h1Zm-25-12h1v1h1v1h-1v1h-1v-1h-1v-1h1v-1Zm2,20h-1v1h-1v-1h-1v-1h1v-1h1v1h1v1Zm0-6h-1v1h-1v-1h-1v-1h1v-1h1v1h1v1Zm-1-8v1h1v1h-1v1h-1v-1h-1v-1h1v-1h1Zm-1,21v-1h-1v-1h1v-1h1v1h1v1h-1v1h-1Zm-4-20v1h-1v1h-0.679c0.2-.691.42-1.368,0.679-2.027V188h1Zm-2,6v-1h1v1h1v1h-1v1h-1v-1h-0.536c0.023-.337.054-0.669,0.089-1H875Zm0,6v-1h1v1h1v1h-1v1h-1v-1h-0.313c-0.047-.329-0.09-0.662-0.125-1H875Zm1,5.97q-0.192-.477-0.362-0.97H876v0.97Zm1,0.03v1h-0.546q-0.234-.49-0.441-1H877Zm3.4,6.358c-0.126-.116-0.245-0.239-0.368-0.358H881v-1h1v1h1v1h-1v0.665A17.946,17.946,0,0,1,880.4,212.358ZM900,175v1h1v1h-1v1h-1v-1h-1v-1h1v-1h1Zm36,38v1h-1v-1h-1v-1h1v-1h1v1h0.02v1H936Zm0-6v1h-1v-1h-1v-1h1v-1h1v1h0.02v1H936Zm0-6v1h-1v-1h-1v-1h1v-1h1v1h0.02v1H936Zm0-6v1h-1v-1h-1v-1h1v-1h1v1h0.02v1H936Zm0-6v1h-1v-1h-1v-1h1v-1h1v1h0.02v1H936Zm0-6v1h-1v-1h-1v-1h1v-1h1v1h0.02v1H936Zm-6-7.863V176h1v1h-1v1h-1v-1h-1v-1h1v-0.863h1ZM924,176h1v1h-1v1h-0.637v-2.863H924V176Zm-0.637,41H924v0.148h-0.637V217ZM925,213h-1v1h-0.637v-3H924v1h1v1Zm0-6h-1v1h-0.637v-3H924v1h1v1Zm0-6h-1v1h-0.637v-3H924v1h1v1Zm0-6h-1v1h-0.637v-3H924v1h1v1Zm0-6h-1v1h-0.637v-3H924v1h1v1Zm-1-7h1v1h-1v1h-0.637v-3H924v1Zm6,35v0.148h-1V217h1Zm1-4h-1v1h-1v-1h-1v-1h1v-1h1v1h1v1Zm0-6h-1v1h-1v-1h-1v-1h1v-1h1v1h1v1Zm0-6h-1v1h-1v-1h-1v-1h1v-1h1v1h1v1Zm0-6h-1v1h-1v-1h-1v-1h1v-1h1v1h1v1Zm0-6h-1v1h-1v-1h-1v-1h1v-1h1v1h1v1Zm-1-8v1h1v1h-1v1h-1v-1h-1v-1h1v-1h1Zm6,36v0.148h-1V217h1Zm0.02-40H936v1h-1v-1h-1v-1h1v-0.863h1V176h0.02v1ZM972,184h-1v-1h-1v-1h1v-1h1v1h1v1h-1v1Zm0-8.863V176h1v1h-1v1h-1v-1h-1v-1h1v-0.863h1ZM965,184v-1h-1v-1h1v-1h1v1h1v1h-1v1h-1Zm1-8.863V176h1v1h-1v1h-1v-1h-1v-1h1v-0.863h1Zm-6,0V176h1v1h-1v1h-1v-1h-1v-1h1v-0.863h1Zm-6,0V176h1v1h-1v1h-1v-1h-1v-1h1v-0.863h1ZM948,176h1v1h-1v1h-0.719v-2.863H948V176Zm-0.719,41H948v0.148h-0.719V217ZM949,213h-1v1h-0.719v-3H948v1h1v1Zm0-6h-1v1h-0.719v-3H948v1h1v1Zm0-6h-1v1h-0.719v-3H948v1h1v1Zm0-6h-1v1h-0.719v-3H948v1h1v1Zm0-6h-1v1h-0.719v-3H948v1h1v1Zm-1-7h1v1h-1v1h-0.719v-3H948v1Zm6,35v0.148h-1V217h1Zm1-4h-1v1h-1v-1h-1v-1h1v-1h1v1h1v1Zm0-6h-1v1h-1v-1h-1v-1h1v-1h1v1h1v1Zm0-6h-1v1h-1v-1h-1v-1h1v-1h1v1h1v1Zm0-6h-1v1h-1v-1h-1v-1h1v-1h1v1h1v1Zm0-6h-1v1h-1v-1h-1v-1h1v-1h1v1h1v1Zm-1-8v1h1v1h-1v1h-1v-1h-1v-1h1v-1h1Zm5.938,36v0.148H959V217h0.938ZM972,201v1h-1v-1h-1v-1h1v-1h1v1h0.418v1H972Zm0-6v1h-1v-1h-1v-1h1v-1h1v1h0.418v1H972Zm-8-1h1v-1h1v1h1v1h-1v1h-1v-1h-1v-1Zm1,8v-1h-1v-1h1v-1h1v1h1v1h-1v1h-1Zm-7-8h1v-1h1v1h1v1h-1v1h-1v-1h-1v-1Zm0,6h1v-1h1v1h1v1h-1v1h-1v-1h-1v-1Zm0,6h1v-1h0.938v3H959v-1h-1v-1Zm1,7h-1v-1h1v-1h0.938v3H959v-1Zm0.938-26v3H959v-1h-1v-1h1v-1h0.938ZM959,184v-1h-1v-1h1v-1h1v1h1v1h-1v1h-1Zm55,0h-1v-1h-1v-1h1v-1h1v1h1v1h-1v1Zm0-8.863V176h1v1h-1v1h-1v-1h-1v-1h1v-0.863h1ZM1007,184v-1h-1v-1h1v-1h1v1h1v1h-1v1h-1Zm1-8.863V176h1v1h-1v1h-1v-1h-1v-1h1v-0.863h1Zm-6,0V176h1v1h-1v1h-1v-1h-1v-1h1v-0.863h1ZM996,217v0.148h-1V217h1Zm1-4h-1v1h-1v-1h-1v-1h1v-1h1v1h1v1Zm0-6h-1v1h-1v-1h-1v-1h1v-1h1v1h1v1Zm0-6h-1v1h-1v-1h-1v-1h1v-1h1v1h1v1Zm0-6h-1v1h-1v-1h-1v-1h1v-1h1v1h1v1Zm0-6h-1v1h-1v-1h-1v-1h1v-1h1v1h1v1Zm-1-8v1h1v1h-1v1h-1v-1h-1v-1h1v-1h1Zm6,36v0.148h-1V217h1Zm1-4h-1v1h-1v-1h-1v-1h1v-1h1v1h1v1Zm0-6h-1v1h-1v-1h-1v-1h1v-1h1v1h1v1Zm0-6h-1v1h-1v-1h-1v-1h1v-1h1v1h1v1Zm0-6h-1v1h-1v-1h-1v-1h1v-1h1v1h1v1Zm0-6h-1v1h-1v-1h-1v-1h1v-1h1v1h1v1Zm-1-8v1h1v1h-1v1h-1v-1h-1v-1h1v-1h1Zm-6-5.863V176h1v1h-1v1h-1v-1h-1v-1h1v-0.863h1Zm-6,0V176h1v1h-1v1h-1v-1h-1v-1h1v-0.863h1ZM984,181v1h1v1h-1v1h-1v-1h-1v-1h1v-1h1Zm6,0v1h1v1h-1v1h-1v-1h-1v-1h1v-1h1Zm-6-5.863V176h1v1h-1v1h-1v-1h-1v-1h1v-0.863h1Z" transform="translate(-777.906 -174.438)"/>
</svg>
